<svg xmlns:xlink="http://www.w3.org/1999/xlink" viewBox="0 0 717 251" fill="none" xmlns="http://www.w3.org/2000/svg" class="desktop-logo" width="717"  height="251" ><path d="M45.122 174.221v-25.589h24.427c17.159 0 35.292-4.533 35.517-19.931 0-9.479-7.718-22.029-34.805-22.029-14.986 0-35.292 5.207-35.292 20.381H3.049c0-35.78 36.266-48.705 67.437-48.705 31.92 0 66.238 15.173 66.5 50.465a34.956 34.956 0 01-23.453 32.445c16.185 5.208 27.574 20.868 27.574 34.842 0 40.538-38.926 52.451-71.558 52.451-32.632 0-68.936-12.962-69.16-50.652h32.145c0 17.084 23.453 23.003 37.24 23.003 16.185 0 37.727-6.631 37.727-24.427 0-9.928-5.582-22.254-36.041-22.254H45.122zM194.532 131.548v24.877c7.493-11.24 25.851-17.534 39.151-17.534 34.093 0 69.872 13.975 69.872 55.224 0 36.753-36.003 54.998-70.097 54.998-34.093 0-70.621-18.245-70.621-55.448v-61.892c0-36.978 34.842-54.25 69.647-54.25 36.753 0 69.386 14.2 69.386 49.042h-31.733c0-14.686-18.733-22.029-36.978-22.029-19.107-.225-38.439 9.966-38.439 27.949l-.188-.937zm77.366 62.567c0-18.246-16.935-27.949-38.215-27.949-21.28 0-39.413 9.478-39.151 27.949.263 18.47 18.133 27.087 38.926 27.087 20.044 0 38.44-8.842 38.44-27.087zM450.792 110.23h-91.377v29.148h32.857c36.041 0 68.186 14.462 67.961 53.313 0 37.69-32.182 55.71-66.275 55.71-37.203 0-69.123-13.038-69.385-51.926h31.733c0 18.283 21.28 23.003 37.24 23.003s35.03-7.118 35.03-26.787c.262-18.733-18.733-24.165-36.267-24.165h-64.102V80.82h122.585v29.41zM686.973.159a28.325 28.325 0 00-13.6 53.125L615.939 194.04a28.165 28.165 0 00-23.828 2.473l-61.068-69.873a28.134 28.134 0 00-21.5-45.621 28.138 28.138 0 00-28.51 25.089 28.136 28.136 0 0042.517 27.126l61.031 69.872a28.396 28.396 0 00-6.182 17.684 28.331 28.331 0 007.916 20.69 28.33 28.33 0 0020.389 8.663 28.33 28.33 0 0020.388-8.663 28.322 28.322 0 007.917-20.69 28.157 28.157 0 00-2.671-12.032 28.154 28.154 0 00-7.557-9.735l58.145-142.367c1.351.213 2.717.313 4.084.3a28.323 28.323 0 0011.151-54.759C694.606.837 690.776.02 686.973.16z" fill="#FFFFFF"></path></svg>